<mxfile host="app.diagrams.net" modified="2022-04-17T06:39:22.320Z" agent="5.0 (Windows)" etag="WjsRLcQ2Jp2VUB_EGCTs" version="17.4.5" type="github">
  <diagram id="R2lEEEUBdFMjLlhIrx00" name="Page-1">
    <mxGraphModel dx="1952" dy="1672" grid="1" gridSize="10" guides="1" tooltips="1" connect="1" arrows="1" fold="1" page="1" pageScale="1" pageWidth="850" pageHeight="1100" math="0" shadow="0" extFonts="Permanent Marker^https://fonts.googleapis.com/css?family=Permanent+Marker">
      <root>
        <mxCell id="0" />
        <mxCell id="1" parent="0" />
        <mxCell id="f32I_jaDUziuKx1QwzLD-4" style="edgeStyle=orthogonalEdgeStyle;rounded=0;orthogonalLoop=1;jettySize=auto;html=1;entryX=0;entryY=0.5;entryDx=0;entryDy=0;startArrow=classic;startFill=1;exitX=1;exitY=0.5;exitDx=0;exitDy=0;" parent="1" source="PbuRHkahf-0StaOSiOaG-1" target="PbuRHkahf-0StaOSiOaG-6" edge="1">
          <mxGeometry relative="1" as="geometry">
            <mxPoint x="20" y="30" as="sourcePoint" />
            <mxPoint x="425" y="29.999999999999773" as="targetPoint" />
          </mxGeometry>
        </mxCell>
        <mxCell id="f32I_jaDUziuKx1QwzLD-9" style="edgeStyle=orthogonalEdgeStyle;rounded=0;orthogonalLoop=1;jettySize=auto;html=1;entryX=0.5;entryY=0;entryDx=0;entryDy=0;startArrow=classic;startFill=1;endArrow=none;endFill=0;exitX=0.5;exitY=0;exitDx=0;exitDy=0;" parent="1" source="PbuRHkahf-0StaOSiOaG-1" target="PbuRHkahf-0StaOSiOaG-6" edge="1">
          <mxGeometry relative="1" as="geometry">
            <Array as="points">
              <mxPoint x="-90" y="-90" />
              <mxPoint x="485" y="-90" />
            </Array>
            <mxPoint x="-80" as="sourcePoint" />
            <mxPoint x="485" y="-2.2737367544323206e-13" as="targetPoint" />
          </mxGeometry>
        </mxCell>
        <mxCell id="f32I_jaDUziuKx1QwzLD-21" style="edgeStyle=orthogonalEdgeStyle;rounded=0;orthogonalLoop=1;jettySize=auto;html=1;exitX=0.5;exitY=1;exitDx=0;exitDy=0;startArrow=none;startFill=0;endArrow=classic;endFill=1;entryX=0.5;entryY=0;entryDx=0;entryDy=0;" parent="1" source="kaoQ8aSlirqTVfBg7aQL-9" target="PbuRHkahf-0StaOSiOaG-14" edge="1">
          <mxGeometry relative="1" as="geometry">
            <mxPoint x="-100" y="60" as="sourcePoint" />
            <mxPoint x="-100" y="420" as="targetPoint" />
            <Array as="points" />
          </mxGeometry>
        </mxCell>
        <mxCell id="f32I_jaDUziuKx1QwzLD-6" style="edgeStyle=orthogonalEdgeStyle;rounded=0;orthogonalLoop=1;jettySize=auto;html=1;startArrow=none;startFill=0;endArrow=classic;endFill=1;exitX=1;exitY=0.5;exitDx=0;exitDy=0;entryX=0;entryY=0.5;entryDx=0;entryDy=0;" parent="1" source="PbuRHkahf-0StaOSiOaG-6" target="PbuRHkahf-0StaOSiOaG-24" edge="1">
          <mxGeometry relative="1" as="geometry">
            <mxPoint x="740" y="29.999999999999773" as="sourcePoint" />
            <mxPoint x="830" y="30" as="targetPoint" />
          </mxGeometry>
        </mxCell>
        <mxCell id="f32I_jaDUziuKx1QwzLD-15" style="edgeStyle=orthogonalEdgeStyle;rounded=0;orthogonalLoop=1;jettySize=auto;html=1;exitX=0.5;exitY=1;exitDx=0;exitDy=0;entryX=0.5;entryY=0;entryDx=0;entryDy=0;startArrow=none;startFill=0;endArrow=classic;endFill=1;" parent="1" source="PbuRHkahf-0StaOSiOaG-6" target="PbuRHkahf-0StaOSiOaG-10" edge="1">
          <mxGeometry relative="1" as="geometry">
            <mxPoint x="485" y="59.99999999999977" as="sourcePoint" />
            <mxPoint x="485" y="219.99999999999977" as="targetPoint" />
          </mxGeometry>
        </mxCell>
        <mxCell id="f32I_jaDUziuKx1QwzLD-23" style="edgeStyle=orthogonalEdgeStyle;rounded=0;orthogonalLoop=1;jettySize=auto;html=1;startArrow=none;startFill=0;endArrow=classic;endFill=1;exitX=1;exitY=0.5;exitDx=0;exitDy=0;entryX=0;entryY=0.5;entryDx=0;entryDy=0;" parent="1" source="kaoQ8aSlirqTVfBg7aQL-13" target="PbuRHkahf-0StaOSiOaG-23" edge="1">
          <mxGeometry relative="1" as="geometry">
            <mxPoint x="849.9999999999995" y="450" as="targetPoint" />
            <mxPoint x="545" y="450" as="sourcePoint" />
            <Array as="points">
              <mxPoint x="780" y="560" />
              <mxPoint x="780" y="510" />
            </Array>
          </mxGeometry>
        </mxCell>
        <mxCell id="f32I_jaDUziuKx1QwzLD-22" style="edgeStyle=orthogonalEdgeStyle;rounded=0;orthogonalLoop=1;jettySize=auto;html=1;entryX=0;entryY=0.5;entryDx=0;entryDy=0;startArrow=none;startFill=0;endArrow=classic;endFill=1;exitX=1;exitY=0.5;exitDx=0;exitDy=0;" parent="1" source="kaoQ8aSlirqTVfBg7aQL-11" target="PbuRHkahf-0StaOSiOaG-11" edge="1">
          <mxGeometry relative="1" as="geometry">
            <mxPoint x="20" y="450" as="sourcePoint" />
            <mxPoint x="425" y="450" as="targetPoint" />
            <Array as="points">
              <mxPoint x="300" y="510" />
              <mxPoint x="300" y="560" />
            </Array>
          </mxGeometry>
        </mxCell>
        <mxCell id="f32I_jaDUziuKx1QwzLD-26" style="edgeStyle=orthogonalEdgeStyle;rounded=0;orthogonalLoop=1;jettySize=auto;html=1;exitX=0.75;exitY=0;exitDx=0;exitDy=0;startArrow=classic;startFill=1;endArrow=none;endFill=0;entryX=0.5;entryY=1;entryDx=0;entryDy=0;" parent="1" source="PbuRHkahf-0StaOSiOaG-14" target="PbuRHkahf-0StaOSiOaG-13" edge="1">
          <mxGeometry relative="1" as="geometry">
            <mxPoint x="100" y="300" as="targetPoint" />
            <mxPoint x="-40" y="420" as="sourcePoint" />
            <Array as="points">
              <mxPoint x="-65" y="350" />
              <mxPoint x="110" y="350" />
            </Array>
          </mxGeometry>
        </mxCell>
        <mxCell id="PbuRHkahf-0StaOSiOaG-20" style="edgeStyle=orthogonalEdgeStyle;rounded=0;orthogonalLoop=1;jettySize=auto;html=1;entryX=0.5;entryY=0;entryDx=0;entryDy=0;exitX=0.333;exitY=1.042;exitDx=0;exitDy=0;exitPerimeter=0;" parent="1" source="PbuRHkahf-0StaOSiOaG-1" target="PbuRHkahf-0StaOSiOaG-16" edge="1">
          <mxGeometry relative="1" as="geometry">
            <Array as="points">
              <mxPoint x="-107" y="70" />
              <mxPoint x="-130" y="70" />
              <mxPoint x="-130" y="260" />
              <mxPoint x="-360" y="260" />
            </Array>
            <mxPoint x="-110" y="70" as="sourcePoint" />
          </mxGeometry>
        </mxCell>
        <mxCell id="PbuRHkahf-0StaOSiOaG-27" style="edgeStyle=orthogonalEdgeStyle;rounded=0;orthogonalLoop=1;jettySize=auto;html=1;exitX=0;exitY=0.5;exitDx=0;exitDy=0;entryX=1;entryY=0.5;entryDx=0;entryDy=0;endArrow=classic;endFill=1;startArrow=none;" parent="1" source="kaoQ8aSlirqTVfBg7aQL-6" target="PbuRHkahf-0StaOSiOaG-25" edge="1">
          <mxGeometry relative="1" as="geometry" />
        </mxCell>
        <mxCell id="PbuRHkahf-0StaOSiOaG-1" value="Ticket" style="whiteSpace=wrap;html=1;align=center;" parent="1" vertex="1">
          <mxGeometry x="-140" y="10" width="100" height="40" as="geometry" />
        </mxCell>
        <mxCell id="PbuRHkahf-0StaOSiOaG-4" value="Final Status" style="shape=rhombus;perimeter=rhombusPerimeter;whiteSpace=wrap;html=1;align=center;" parent="1" vertex="1">
          <mxGeometry x="130" width="120" height="60" as="geometry" />
        </mxCell>
        <mxCell id="PbuRHkahf-0StaOSiOaG-6" value="Ticket Logs" style="whiteSpace=wrap;html=1;align=center;" parent="1" vertex="1">
          <mxGeometry x="435" y="10" width="100" height="40" as="geometry" />
        </mxCell>
        <mxCell id="PbuRHkahf-0StaOSiOaG-7" value="Has" style="shape=rhombus;perimeter=rhombusPerimeter;whiteSpace=wrap;html=1;align=center;" parent="1" vertex="1">
          <mxGeometry x="130" y="-120" width="120" height="60" as="geometry" />
        </mxCell>
        <mxCell id="PbuRHkahf-0StaOSiOaG-8" value="Has" style="shape=rhombus;perimeter=rhombusPerimeter;whiteSpace=wrap;html=1;align=center;" parent="1" vertex="1">
          <mxGeometry x="640" width="120" height="60" as="geometry" />
        </mxCell>
        <mxCell id="PbuRHkahf-0StaOSiOaG-9" value="Serves" style="shape=rhombus;perimeter=rhombusPerimeter;whiteSpace=wrap;html=1;align=center;" parent="1" vertex="1">
          <mxGeometry x="425" y="150" width="120" height="60" as="geometry" />
        </mxCell>
        <mxCell id="7SDLh1TChbF1hIY82TgF-20" style="edgeStyle=orthogonalEdgeStyle;rounded=0;orthogonalLoop=1;jettySize=auto;html=1;exitX=0.5;exitY=1;exitDx=0;exitDy=0;entryX=1;entryY=0.5;entryDx=0;entryDy=0;startArrow=none;startFill=0;endArrow=none;endFill=0;strokeColor=default;" edge="1" parent="1" source="PbuRHkahf-0StaOSiOaG-10" target="7SDLh1TChbF1hIY82TgF-19">
          <mxGeometry relative="1" as="geometry" />
        </mxCell>
        <mxCell id="PbuRHkahf-0StaOSiOaG-10" value="Employees" style="whiteSpace=wrap;html=1;align=center;" parent="1" vertex="1">
          <mxGeometry x="435" y="300" width="100" height="40" as="geometry" />
        </mxCell>
        <mxCell id="PbuRHkahf-0StaOSiOaG-11" value="Company" style="whiteSpace=wrap;html=1;align=center;" parent="1" vertex="1">
          <mxGeometry x="435" y="540" width="100" height="40" as="geometry" />
        </mxCell>
        <mxCell id="PbuRHkahf-0StaOSiOaG-110" style="edgeStyle=orthogonalEdgeStyle;rounded=0;orthogonalLoop=1;jettySize=auto;html=1;exitX=1;exitY=0.5;exitDx=0;exitDy=0;entryX=0;entryY=0.5;entryDx=0;entryDy=0;endArrow=classic;endFill=1;" parent="1" source="PbuRHkahf-0StaOSiOaG-13" target="PbuRHkahf-0StaOSiOaG-10" edge="1">
          <mxGeometry relative="1" as="geometry">
            <Array as="points">
              <mxPoint x="230" y="260" />
              <mxPoint x="230" y="370" />
              <mxPoint x="380" y="370" />
              <mxPoint x="380" y="320" />
            </Array>
          </mxGeometry>
        </mxCell>
        <mxCell id="PbuRHkahf-0StaOSiOaG-13" value="Employees&#39; Schedules" style="whiteSpace=wrap;html=1;align=center;" parent="1" vertex="1">
          <mxGeometry x="60" y="240" width="100" height="40" as="geometry" />
        </mxCell>
        <mxCell id="7SDLh1TChbF1hIY82TgF-18" style="edgeStyle=orthogonalEdgeStyle;rounded=0;orthogonalLoop=1;jettySize=auto;html=1;entryX=0.5;entryY=0;entryDx=0;entryDy=0;strokeColor=default;endArrow=none;endFill=0;startArrow=classic;startFill=1;" edge="1" parent="1" source="PbuRHkahf-0StaOSiOaG-14" target="7SDLh1TChbF1hIY82TgF-15">
          <mxGeometry relative="1" as="geometry" />
        </mxCell>
        <mxCell id="PbuRHkahf-0StaOSiOaG-14" value="Branch" style="whiteSpace=wrap;html=1;align=center;" parent="1" vertex="1">
          <mxGeometry x="-140" y="430" width="100" height="40" as="geometry" />
        </mxCell>
        <mxCell id="PbuRHkahf-0StaOSiOaG-15" value="Contains" style="shape=rhombus;perimeter=rhombusPerimeter;whiteSpace=wrap;html=1;align=center;" parent="1" vertex="1">
          <mxGeometry x="-40" y="320" width="120" height="60" as="geometry" />
        </mxCell>
        <mxCell id="PbuRHkahf-0StaOSiOaG-21" style="edgeStyle=orthogonalEdgeStyle;rounded=0;orthogonalLoop=1;jettySize=auto;html=1;exitX=1;exitY=0.5;exitDx=0;exitDy=0;endArrow=none;endFill=0;entryX=0.25;entryY=1;entryDx=0;entryDy=0;" parent="1" source="PbuRHkahf-0StaOSiOaG-16" target="PbuRHkahf-0StaOSiOaG-11" edge="1">
          <mxGeometry relative="1" as="geometry">
            <mxPoint x="470" y="560" as="targetPoint" />
            <Array as="points">
              <mxPoint x="460" y="610" />
            </Array>
          </mxGeometry>
        </mxCell>
        <mxCell id="PbuRHkahf-0StaOSiOaG-16" value="Service Type" style="whiteSpace=wrap;html=1;align=center;" parent="1" vertex="1">
          <mxGeometry x="-410" y="590" width="100" height="40" as="geometry" />
        </mxCell>
        <mxCell id="PbuRHkahf-0StaOSiOaG-22" value="Company&lt;br&gt;&amp;nbsp;Service&amp;nbsp;&lt;br&gt;Type" style="shape=rhombus;perimeter=rhombusPerimeter;whiteSpace=wrap;html=1;align=center;" parent="1" vertex="1">
          <mxGeometry x="30" y="580" width="120" height="60" as="geometry" />
        </mxCell>
        <mxCell id="PbuRHkahf-0StaOSiOaG-23" value="Field" style="whiteSpace=wrap;html=1;align=center;" parent="1" vertex="1">
          <mxGeometry x="810" y="490" width="100" height="40" as="geometry" />
        </mxCell>
        <mxCell id="PbuRHkahf-0StaOSiOaG-24" value="Ticket Status" style="whiteSpace=wrap;html=1;align=center;" parent="1" vertex="1">
          <mxGeometry x="850" y="10" width="100" height="40" as="geometry" />
        </mxCell>
        <mxCell id="PbuRHkahf-0StaOSiOaG-25" value="&amp;nbsp;User&amp;nbsp; &amp;nbsp; &amp;nbsp;" style="whiteSpace=wrap;html=1;align=center;" parent="1" vertex="1">
          <mxGeometry x="-580" y="-180" width="100" height="40" as="geometry" />
        </mxCell>
        <mxCell id="PbuRHkahf-0StaOSiOaG-29" value="First_name" style="ellipse;whiteSpace=wrap;html=1;align=center;" parent="1" vertex="1">
          <mxGeometry x="-720" y="-300" width="100" height="40" as="geometry" />
        </mxCell>
        <mxCell id="PbuRHkahf-0StaOSiOaG-40" value="Last_name" style="ellipse;whiteSpace=wrap;html=1;align=center;" parent="1" vertex="1">
          <mxGeometry x="-790" y="-250" width="100" height="40" as="geometry" />
        </mxCell>
        <mxCell id="PbuRHkahf-0StaOSiOaG-45" value="" style="endArrow=none;html=1;rounded=0;exitX=1;exitY=1;exitDx=0;exitDy=0;entryX=0.25;entryY=0;entryDx=0;entryDy=0;" parent="1" source="PbuRHkahf-0StaOSiOaG-29" target="PbuRHkahf-0StaOSiOaG-25" edge="1">
          <mxGeometry relative="1" as="geometry">
            <mxPoint x="-680" y="-160" as="sourcePoint" />
            <mxPoint x="-520" y="-160" as="targetPoint" />
          </mxGeometry>
        </mxCell>
        <mxCell id="PbuRHkahf-0StaOSiOaG-47" value="" style="endArrow=none;html=1;rounded=0;exitX=1;exitY=1;exitDx=0;exitDy=0;entryX=0;entryY=0.25;entryDx=0;entryDy=0;" parent="1" source="PbuRHkahf-0StaOSiOaG-40" target="PbuRHkahf-0StaOSiOaG-25" edge="1">
          <mxGeometry relative="1" as="geometry">
            <mxPoint x="-660" y="-250" as="sourcePoint" />
            <mxPoint x="-545" y="-170" as="targetPoint" />
            <Array as="points" />
          </mxGeometry>
        </mxCell>
        <mxCell id="PbuRHkahf-0StaOSiOaG-53" value="Last_change_date," style="ellipse;whiteSpace=wrap;html=1;align=center;" parent="1" vertex="1">
          <mxGeometry x="-320" y="100" width="100" height="40" as="geometry" />
        </mxCell>
        <mxCell id="PbuRHkahf-0StaOSiOaG-57" value="Check_in" style="ellipse;whiteSpace=wrap;html=1;align=center;" parent="1" vertex="1">
          <mxGeometry x="-370" y="40" width="100" height="40" as="geometry" />
        </mxCell>
        <mxCell id="PbuRHkahf-0StaOSiOaG-58" value="Target_day" style="ellipse;whiteSpace=wrap;html=1;align=center;" parent="1" vertex="1">
          <mxGeometry x="-370" y="-20" width="100" height="40" as="geometry" />
        </mxCell>
        <mxCell id="PbuRHkahf-0StaOSiOaG-59" value="Created_date" style="ellipse;whiteSpace=wrap;html=1;align=center;" parent="1" vertex="1">
          <mxGeometry x="-320" y="-70" width="100" height="40" as="geometry" />
        </mxCell>
        <mxCell id="PbuRHkahf-0StaOSiOaG-60" value="ID" style="ellipse;whiteSpace=wrap;html=1;align=center;fontStyle=4;" parent="1" vertex="1">
          <mxGeometry x="-250" y="-120" width="100" height="40" as="geometry" />
        </mxCell>
        <mxCell id="PbuRHkahf-0StaOSiOaG-61" value="Activated_time" style="ellipse;whiteSpace=wrap;html=1;align=center;" parent="1" vertex="1">
          <mxGeometry x="-250" y="160" width="100" height="40" as="geometry" />
        </mxCell>
        <mxCell id="PbuRHkahf-0StaOSiOaG-63" value="" style="endArrow=none;html=1;rounded=0;entryX=0;entryY=0.75;entryDx=0;entryDy=0;" parent="1" target="PbuRHkahf-0StaOSiOaG-1" edge="1">
          <mxGeometry relative="1" as="geometry">
            <mxPoint x="-270" y="60" as="sourcePoint" />
            <mxPoint x="-110" y="60" as="targetPoint" />
          </mxGeometry>
        </mxCell>
        <mxCell id="PbuRHkahf-0StaOSiOaG-64" value="" style="endArrow=none;html=1;rounded=0;entryX=0;entryY=0.25;entryDx=0;entryDy=0;exitX=1;exitY=0.5;exitDx=0;exitDy=0;" parent="1" source="PbuRHkahf-0StaOSiOaG-58" target="PbuRHkahf-0StaOSiOaG-1" edge="1">
          <mxGeometry relative="1" as="geometry">
            <mxPoint x="-260" y="70" as="sourcePoint" />
            <mxPoint x="-130.00000000000023" y="50" as="targetPoint" />
          </mxGeometry>
        </mxCell>
        <mxCell id="PbuRHkahf-0StaOSiOaG-65" value="" style="endArrow=none;html=1;rounded=0;entryX=0;entryY=1;entryDx=0;entryDy=0;exitX=1;exitY=0;exitDx=0;exitDy=0;" parent="1" source="PbuRHkahf-0StaOSiOaG-53" target="PbuRHkahf-0StaOSiOaG-1" edge="1">
          <mxGeometry relative="1" as="geometry">
            <mxPoint x="-260" y="70" as="sourcePoint" />
            <mxPoint x="-130.00000000000023" y="50" as="targetPoint" />
          </mxGeometry>
        </mxCell>
        <mxCell id="PbuRHkahf-0StaOSiOaG-66" value="" style="endArrow=none;html=1;rounded=0;entryX=0.151;entryY=1.016;entryDx=0;entryDy=0;exitX=0.5;exitY=0;exitDx=0;exitDy=0;entryPerimeter=0;" parent="1" source="PbuRHkahf-0StaOSiOaG-61" target="PbuRHkahf-0StaOSiOaG-1" edge="1">
          <mxGeometry relative="1" as="geometry">
            <mxPoint x="-210.00000000000023" y="130" as="sourcePoint" />
            <mxPoint x="-130.00000000000023" y="60" as="targetPoint" />
          </mxGeometry>
        </mxCell>
        <mxCell id="PbuRHkahf-0StaOSiOaG-67" value="" style="endArrow=none;html=1;rounded=0;entryX=0.116;entryY=-0.043;entryDx=0;entryDy=0;exitX=0.5;exitY=1;exitDx=0;exitDy=0;entryPerimeter=0;" parent="1" source="PbuRHkahf-0StaOSiOaG-60" target="PbuRHkahf-0StaOSiOaG-1" edge="1">
          <mxGeometry relative="1" as="geometry">
            <mxPoint x="-260.0000000000002" y="10" as="sourcePoint" />
            <mxPoint x="-130.00000000000023" y="30" as="targetPoint" />
          </mxGeometry>
        </mxCell>
        <mxCell id="PbuRHkahf-0StaOSiOaG-68" value="" style="endArrow=none;html=1;rounded=0;exitX=1;exitY=1;exitDx=0;exitDy=0;entryX=0;entryY=0;entryDx=0;entryDy=0;" parent="1" source="PbuRHkahf-0StaOSiOaG-59" target="PbuRHkahf-0StaOSiOaG-1" edge="1">
          <mxGeometry relative="1" as="geometry">
            <mxPoint x="-189.99999999999977" y="-70" as="sourcePoint" />
            <mxPoint x="-170" as="targetPoint" />
            <Array as="points" />
          </mxGeometry>
        </mxCell>
        <mxCell id="PbuRHkahf-0StaOSiOaG-69" value="ID" style="ellipse;whiteSpace=wrap;html=1;align=center;fontStyle=4;" parent="1" vertex="1">
          <mxGeometry x="545" y="-60" width="100" height="40" as="geometry" />
        </mxCell>
        <mxCell id="PbuRHkahf-0StaOSiOaG-72" value="Change_date" style="ellipse;whiteSpace=wrap;html=1;align=center;" parent="1" vertex="1">
          <mxGeometry x="540" y="80" width="100" height="40" as="geometry" />
        </mxCell>
        <mxCell id="PbuRHkahf-0StaOSiOaG-74" value="" style="endArrow=none;html=1;rounded=0;entryX=0;entryY=0;entryDx=0;entryDy=0;exitX=1;exitY=1;exitDx=0;exitDy=0;" parent="1" source="PbuRHkahf-0StaOSiOaG-6" target="PbuRHkahf-0StaOSiOaG-72" edge="1">
          <mxGeometry relative="1" as="geometry">
            <mxPoint x="500" y="40" as="sourcePoint" />
            <mxPoint x="660" y="40" as="targetPoint" />
          </mxGeometry>
        </mxCell>
        <mxCell id="PbuRHkahf-0StaOSiOaG-75" value="" style="endArrow=none;html=1;rounded=0;entryX=0.234;entryY=0.928;entryDx=0;entryDy=0;exitX=1;exitY=0;exitDx=0;exitDy=0;entryPerimeter=0;" parent="1" source="PbuRHkahf-0StaOSiOaG-6" target="PbuRHkahf-0StaOSiOaG-69" edge="1">
          <mxGeometry relative="1" as="geometry">
            <mxPoint x="545" y="60" as="sourcePoint" />
            <mxPoint x="624.8544793961719" y="95.77443213654601" as="targetPoint" />
          </mxGeometry>
        </mxCell>
        <mxCell id="PbuRHkahf-0StaOSiOaG-77" value="ID" style="ellipse;whiteSpace=wrap;html=1;align=center;fontStyle=4;" parent="1" vertex="1">
          <mxGeometry x="310" y="470" width="100" height="40" as="geometry" />
        </mxCell>
        <mxCell id="PbuRHkahf-0StaOSiOaG-79" value="" style="endArrow=none;html=1;rounded=0;entryX=0;entryY=0;entryDx=0;entryDy=0;exitX=1;exitY=1;exitDx=0;exitDy=0;" parent="1" source="PbuRHkahf-0StaOSiOaG-77" target="PbuRHkahf-0StaOSiOaG-11" edge="1">
          <mxGeometry relative="1" as="geometry">
            <mxPoint x="400" y="460" as="sourcePoint" />
            <mxPoint x="560" y="460" as="targetPoint" />
          </mxGeometry>
        </mxCell>
        <mxCell id="PbuRHkahf-0StaOSiOaG-81" value="Name" style="ellipse;whiteSpace=wrap;html=1;align=center;" parent="1" vertex="1">
          <mxGeometry x="510" y="440" width="100" height="40" as="geometry" />
        </mxCell>
        <mxCell id="PbuRHkahf-0StaOSiOaG-82" value="Email" style="ellipse;whiteSpace=wrap;html=1;align=center;" parent="1" vertex="1">
          <mxGeometry x="590" y="480" width="100" height="40" as="geometry" />
        </mxCell>
        <mxCell id="PbuRHkahf-0StaOSiOaG-83" value="" style="endArrow=none;html=1;rounded=0;entryX=0.5;entryY=1;entryDx=0;entryDy=0;exitX=0.75;exitY=0;exitDx=0;exitDy=0;" parent="1" source="PbuRHkahf-0StaOSiOaG-11" target="PbuRHkahf-0StaOSiOaG-81" edge="1">
          <mxGeometry relative="1" as="geometry">
            <mxPoint x="540" y="490" as="sourcePoint" />
            <mxPoint x="740" y="520" as="targetPoint" />
          </mxGeometry>
        </mxCell>
        <mxCell id="PbuRHkahf-0StaOSiOaG-84" value="" style="endArrow=none;html=1;rounded=0;exitX=1;exitY=0.25;exitDx=0;exitDy=0;entryX=0;entryY=1;entryDx=0;entryDy=0;" parent="1" source="PbuRHkahf-0StaOSiOaG-11" target="PbuRHkahf-0StaOSiOaG-82" edge="1">
          <mxGeometry relative="1" as="geometry">
            <mxPoint x="560" y="530" as="sourcePoint" />
            <mxPoint x="740" y="520" as="targetPoint" />
          </mxGeometry>
        </mxCell>
        <mxCell id="PbuRHkahf-0StaOSiOaG-85" value="Phone" style="ellipse;whiteSpace=wrap;html=1;align=center;" parent="1" vertex="1">
          <mxGeometry x="600" y="600" width="100" height="40" as="geometry" />
        </mxCell>
        <mxCell id="PbuRHkahf-0StaOSiOaG-86" value="" style="endArrow=none;html=1;rounded=0;entryX=0;entryY=0;entryDx=0;entryDy=0;exitX=1;exitY=0.75;exitDx=0;exitDy=0;" parent="1" source="PbuRHkahf-0StaOSiOaG-11" target="PbuRHkahf-0StaOSiOaG-85" edge="1">
          <mxGeometry relative="1" as="geometry">
            <mxPoint x="530" y="540" as="sourcePoint" />
            <mxPoint x="614.8544793961721" y="484.2255678634542" as="targetPoint" />
          </mxGeometry>
        </mxCell>
        <mxCell id="PbuRHkahf-0StaOSiOaG-87" value="Address" style="ellipse;whiteSpace=wrap;html=1;align=center;" parent="1" vertex="1">
          <mxGeometry x="530" y="650" width="100" height="40" as="geometry" />
        </mxCell>
        <mxCell id="PbuRHkahf-0StaOSiOaG-88" value="" style="endArrow=none;html=1;rounded=0;entryX=0.5;entryY=0;entryDx=0;entryDy=0;exitX=0.75;exitY=1;exitDx=0;exitDy=0;" parent="1" source="PbuRHkahf-0StaOSiOaG-11" target="PbuRHkahf-0StaOSiOaG-87" edge="1">
          <mxGeometry relative="1" as="geometry">
            <mxPoint x="545" y="530" as="sourcePoint" />
            <mxPoint x="614.8544793961721" y="555.7744321365458" as="targetPoint" />
          </mxGeometry>
        </mxCell>
        <mxCell id="PbuRHkahf-0StaOSiOaG-89" value="Start_of_coop" style="ellipse;whiteSpace=wrap;html=1;align=center;" parent="1" vertex="1">
          <mxGeometry x="435" y="680" width="100" height="40" as="geometry" />
        </mxCell>
        <mxCell id="PbuRHkahf-0StaOSiOaG-90" value="" style="endArrow=none;html=1;rounded=0;entryX=0.5;entryY=1;entryDx=0;entryDy=0;exitX=0.5;exitY=0;exitDx=0;exitDy=0;" parent="1" source="PbuRHkahf-0StaOSiOaG-89" target="PbuRHkahf-0StaOSiOaG-11" edge="1">
          <mxGeometry relative="1" as="geometry">
            <mxPoint x="520" y="500" as="sourcePoint" />
            <mxPoint x="595" y="440" as="targetPoint" />
          </mxGeometry>
        </mxCell>
        <mxCell id="PbuRHkahf-0StaOSiOaG-91" value="ID" style="ellipse;whiteSpace=wrap;html=1;align=center;fontStyle=4;" parent="1" vertex="1">
          <mxGeometry x="-220" y="320" width="100" height="40" as="geometry" />
        </mxCell>
        <mxCell id="PbuRHkahf-0StaOSiOaG-92" value="Name" style="ellipse;whiteSpace=wrap;html=1;align=center;" parent="1" vertex="1">
          <mxGeometry x="-320" y="360" width="100" height="40" as="geometry" />
        </mxCell>
        <mxCell id="PbuRHkahf-0StaOSiOaG-93" value="Email" style="ellipse;whiteSpace=wrap;html=1;align=center;" parent="1" vertex="1">
          <mxGeometry x="-350" y="430" width="100" height="40" as="geometry" />
        </mxCell>
        <mxCell id="PbuRHkahf-0StaOSiOaG-94" value="Phone" style="ellipse;whiteSpace=wrap;html=1;align=center;" parent="1" vertex="1">
          <mxGeometry x="-320" y="500" width="100" height="40" as="geometry" />
        </mxCell>
        <mxCell id="PbuRHkahf-0StaOSiOaG-95" value="Address" style="ellipse;whiteSpace=wrap;html=1;align=center;" parent="1" vertex="1">
          <mxGeometry x="-190" y="520" width="100" height="40" as="geometry" />
        </mxCell>
        <mxCell id="PbuRHkahf-0StaOSiOaG-98" value="" style="endArrow=none;html=1;rounded=0;exitX=0.5;exitY=1;exitDx=0;exitDy=0;entryX=0.25;entryY=0;entryDx=0;entryDy=0;" parent="1" source="PbuRHkahf-0StaOSiOaG-91" target="PbuRHkahf-0StaOSiOaG-14" edge="1">
          <mxGeometry relative="1" as="geometry">
            <mxPoint x="-220" y="380" as="sourcePoint" />
            <mxPoint x="-60" y="380" as="targetPoint" />
          </mxGeometry>
        </mxCell>
        <mxCell id="PbuRHkahf-0StaOSiOaG-99" value="" style="endArrow=none;html=1;rounded=0;exitX=1;exitY=1;exitDx=0;exitDy=0;entryX=0;entryY=0.25;entryDx=0;entryDy=0;" parent="1" source="PbuRHkahf-0StaOSiOaG-92" target="PbuRHkahf-0StaOSiOaG-14" edge="1">
          <mxGeometry relative="1" as="geometry">
            <mxPoint x="-179.99999999999977" y="370" as="sourcePoint" />
            <mxPoint x="-150" y="430" as="targetPoint" />
          </mxGeometry>
        </mxCell>
        <mxCell id="PbuRHkahf-0StaOSiOaG-100" value="" style="endArrow=none;html=1;rounded=0;exitX=1;exitY=0.5;exitDx=0;exitDy=0;entryX=0;entryY=0.5;entryDx=0;entryDy=0;" parent="1" source="PbuRHkahf-0StaOSiOaG-93" target="PbuRHkahf-0StaOSiOaG-14" edge="1">
          <mxGeometry relative="1" as="geometry">
            <mxPoint x="-210.00000000000023" y="410" as="sourcePoint" />
            <mxPoint x="-200" y="440" as="targetPoint" />
          </mxGeometry>
        </mxCell>
        <mxCell id="PbuRHkahf-0StaOSiOaG-101" value="" style="endArrow=none;html=1;rounded=0;exitX=1;exitY=0;exitDx=0;exitDy=0;entryX=0;entryY=0.75;entryDx=0;entryDy=0;" parent="1" source="PbuRHkahf-0StaOSiOaG-94" target="PbuRHkahf-0StaOSiOaG-14" edge="1">
          <mxGeometry relative="1" as="geometry">
            <mxPoint x="-224.85447939617552" y="404.22556786345285" as="sourcePoint" />
            <mxPoint x="-130.00000000000023" y="440" as="targetPoint" />
          </mxGeometry>
        </mxCell>
        <mxCell id="PbuRHkahf-0StaOSiOaG-102" value="" style="endArrow=none;html=1;rounded=0;exitX=0.5;exitY=0;exitDx=0;exitDy=0;entryX=0.25;entryY=1;entryDx=0;entryDy=0;" parent="1" source="PbuRHkahf-0StaOSiOaG-95" target="PbuRHkahf-0StaOSiOaG-14" edge="1">
          <mxGeometry relative="1" as="geometry">
            <mxPoint x="-180" y="430" as="sourcePoint" />
            <mxPoint x="-20" y="430" as="targetPoint" />
          </mxGeometry>
        </mxCell>
        <mxCell id="PbuRHkahf-0StaOSiOaG-104" value="ID" style="ellipse;whiteSpace=wrap;html=1;align=center;fontStyle=4;" parent="1" vertex="1">
          <mxGeometry x="-510" y="500" width="100" height="40" as="geometry" />
        </mxCell>
        <mxCell id="PbuRHkahf-0StaOSiOaG-105" value="Name" style="ellipse;whiteSpace=wrap;html=1;align=center;" parent="1" vertex="1">
          <mxGeometry x="-580" y="590" width="100" height="40" as="geometry" />
        </mxCell>
        <mxCell id="PbuRHkahf-0StaOSiOaG-106" value="Description" style="ellipse;whiteSpace=wrap;html=1;align=center;" parent="1" vertex="1">
          <mxGeometry x="-510" y="680" width="100" height="40" as="geometry" />
        </mxCell>
        <mxCell id="PbuRHkahf-0StaOSiOaG-107" value="" style="endArrow=none;html=1;rounded=0;exitX=0.5;exitY=0;exitDx=0;exitDy=0;entryX=0;entryY=1;entryDx=0;entryDy=0;" parent="1" source="PbuRHkahf-0StaOSiOaG-106" target="PbuRHkahf-0StaOSiOaG-16" edge="1">
          <mxGeometry relative="1" as="geometry">
            <mxPoint x="-330" y="580" as="sourcePoint" />
            <mxPoint x="-170" y="580" as="targetPoint" />
          </mxGeometry>
        </mxCell>
        <mxCell id="PbuRHkahf-0StaOSiOaG-108" value="" style="endArrow=none;html=1;rounded=0;exitX=1;exitY=0.5;exitDx=0;exitDy=0;entryX=0;entryY=0.5;entryDx=0;entryDy=0;" parent="1" source="PbuRHkahf-0StaOSiOaG-105" target="PbuRHkahf-0StaOSiOaG-16" edge="1">
          <mxGeometry relative="1" as="geometry">
            <mxPoint x="-394.8544793961719" y="705.7744321365458" as="sourcePoint" />
            <mxPoint x="-350" y="640" as="targetPoint" />
          </mxGeometry>
        </mxCell>
        <mxCell id="PbuRHkahf-0StaOSiOaG-109" value="" style="endArrow=none;html=1;rounded=0;exitX=0.5;exitY=1;exitDx=0;exitDy=0;entryX=0;entryY=0;entryDx=0;entryDy=0;" parent="1" source="PbuRHkahf-0StaOSiOaG-104" target="PbuRHkahf-0StaOSiOaG-16" edge="1">
          <mxGeometry relative="1" as="geometry">
            <mxPoint x="-450" y="690" as="sourcePoint" />
            <mxPoint x="-400" y="640" as="targetPoint" />
          </mxGeometry>
        </mxCell>
        <mxCell id="PbuRHkahf-0StaOSiOaG-111" value="ID" style="ellipse;whiteSpace=wrap;html=1;align=center;fontStyle=4;" parent="1" vertex="1">
          <mxGeometry x="-40" y="180" width="100" height="40" as="geometry" />
        </mxCell>
        <mxCell id="PbuRHkahf-0StaOSiOaG-112" value="Start" style="ellipse;whiteSpace=wrap;html=1;align=center;" parent="1" vertex="1">
          <mxGeometry x="60" y="140" width="100" height="40" as="geometry" />
        </mxCell>
        <mxCell id="PbuRHkahf-0StaOSiOaG-113" value="End" style="ellipse;whiteSpace=wrap;html=1;align=center;" parent="1" vertex="1">
          <mxGeometry x="160" y="180" width="100" height="40" as="geometry" />
        </mxCell>
        <mxCell id="PbuRHkahf-0StaOSiOaG-114" value="" style="endArrow=none;html=1;rounded=0;exitX=1;exitY=1;exitDx=0;exitDy=0;entryX=0.25;entryY=0;entryDx=0;entryDy=0;" parent="1" source="PbuRHkahf-0StaOSiOaG-111" target="PbuRHkahf-0StaOSiOaG-13" edge="1">
          <mxGeometry relative="1" as="geometry">
            <mxPoint x="102.5" y="150" as="sourcePoint" />
            <mxPoint x="207.49999999999977" y="200" as="targetPoint" />
          </mxGeometry>
        </mxCell>
        <mxCell id="PbuRHkahf-0StaOSiOaG-115" value="" style="endArrow=none;html=1;rounded=0;exitX=0.5;exitY=1;exitDx=0;exitDy=0;entryX=0.5;entryY=0;entryDx=0;entryDy=0;" parent="1" source="PbuRHkahf-0StaOSiOaG-112" target="PbuRHkahf-0StaOSiOaG-13" edge="1">
          <mxGeometry relative="1" as="geometry">
            <mxPoint x="142.50000000000023" y="140" as="sourcePoint" />
            <mxPoint x="182.49999999999977" y="210" as="targetPoint" />
          </mxGeometry>
        </mxCell>
        <mxCell id="PbuRHkahf-0StaOSiOaG-116" value="" style="endArrow=none;html=1;rounded=0;exitX=0;exitY=1;exitDx=0;exitDy=0;entryX=0.75;entryY=0;entryDx=0;entryDy=0;" parent="1" source="PbuRHkahf-0StaOSiOaG-113" target="PbuRHkahf-0StaOSiOaG-13" edge="1">
          <mxGeometry relative="1" as="geometry">
            <mxPoint x="112.49999999999977" y="180" as="sourcePoint" />
            <mxPoint x="182.49999999999977" y="220" as="targetPoint" />
          </mxGeometry>
        </mxCell>
        <mxCell id="PbuRHkahf-0StaOSiOaG-117" value="ID" style="ellipse;whiteSpace=wrap;html=1;align=center;fontStyle=4;" parent="1" vertex="1">
          <mxGeometry x="1010" y="10" width="100" height="40" as="geometry" />
        </mxCell>
        <mxCell id="PbuRHkahf-0StaOSiOaG-118" value="Description" style="ellipse;whiteSpace=wrap;html=1;align=center;" parent="1" vertex="1">
          <mxGeometry x="920" y="90" width="100" height="40" as="geometry" />
        </mxCell>
        <mxCell id="PbuRHkahf-0StaOSiOaG-119" value="Name" style="ellipse;whiteSpace=wrap;html=1;align=center;" parent="1" vertex="1">
          <mxGeometry x="920" y="-70" width="100" height="40" as="geometry" />
        </mxCell>
        <mxCell id="PbuRHkahf-0StaOSiOaG-120" value="" style="endArrow=none;html=1;rounded=0;exitX=0.5;exitY=1;exitDx=0;exitDy=0;entryX=0.5;entryY=0;entryDx=0;entryDy=0;" parent="1" source="PbuRHkahf-0StaOSiOaG-119" target="PbuRHkahf-0StaOSiOaG-24" edge="1">
          <mxGeometry relative="1" as="geometry">
            <mxPoint x="970" y="-210" as="sourcePoint" />
            <mxPoint x="890" y="-160" as="targetPoint" />
          </mxGeometry>
        </mxCell>
        <mxCell id="PbuRHkahf-0StaOSiOaG-121" value="" style="endArrow=none;html=1;rounded=0;exitX=0.5;exitY=0;exitDx=0;exitDy=0;entryX=0.5;entryY=1;entryDx=0;entryDy=0;" parent="1" source="PbuRHkahf-0StaOSiOaG-118" target="PbuRHkahf-0StaOSiOaG-24" edge="1">
          <mxGeometry relative="1" as="geometry">
            <mxPoint x="905.1455206038281" y="-84.22556786345422" as="sourcePoint" />
            <mxPoint x="890" y="-180" as="targetPoint" />
          </mxGeometry>
        </mxCell>
        <mxCell id="PbuRHkahf-0StaOSiOaG-122" value="" style="endArrow=none;html=1;rounded=0;exitX=0;exitY=0.5;exitDx=0;exitDy=0;entryX=1;entryY=0.5;entryDx=0;entryDy=0;" parent="1" source="PbuRHkahf-0StaOSiOaG-117" target="PbuRHkahf-0StaOSiOaG-24" edge="1">
          <mxGeometry relative="1" as="geometry">
            <mxPoint x="850" y="-100" as="sourcePoint" />
            <mxPoint x="890" y="-200" as="targetPoint" />
          </mxGeometry>
        </mxCell>
        <mxCell id="PbuRHkahf-0StaOSiOaG-123" value="ID" style="ellipse;whiteSpace=wrap;html=1;align=center;fontStyle=4;" parent="1" vertex="1">
          <mxGeometry x="970" y="490" width="100" height="40" as="geometry" />
        </mxCell>
        <mxCell id="PbuRHkahf-0StaOSiOaG-124" value="Name" style="ellipse;whiteSpace=wrap;html=1;align=center;" parent="1" vertex="1">
          <mxGeometry x="890" y="570" width="100" height="40" as="geometry" />
        </mxCell>
        <mxCell id="PbuRHkahf-0StaOSiOaG-125" value="" style="endArrow=none;html=1;rounded=0;exitX=0.5;exitY=0;exitDx=0;exitDy=0;entryX=0.5;entryY=1;entryDx=0;entryDy=0;" parent="1" source="PbuRHkahf-0StaOSiOaG-124" target="PbuRHkahf-0StaOSiOaG-23" edge="1">
          <mxGeometry relative="1" as="geometry">
            <mxPoint x="1010" y="270" as="sourcePoint" />
            <mxPoint x="940" y="490" as="targetPoint" />
          </mxGeometry>
        </mxCell>
        <mxCell id="PbuRHkahf-0StaOSiOaG-126" value="" style="endArrow=none;html=1;rounded=0;exitX=0;exitY=0.5;exitDx=0;exitDy=0;entryX=1;entryY=0.5;entryDx=0;entryDy=0;" parent="1" source="PbuRHkahf-0StaOSiOaG-123" target="PbuRHkahf-0StaOSiOaG-23" edge="1">
          <mxGeometry relative="1" as="geometry">
            <mxPoint x="890" y="380" as="sourcePoint" />
            <mxPoint x="1010" y="500" as="targetPoint" />
          </mxGeometry>
        </mxCell>
        <mxCell id="PbuRHkahf-0StaOSiOaG-132" value="ID" style="ellipse;whiteSpace=wrap;html=1;align=center;fontStyle=4;" parent="1" vertex="1">
          <mxGeometry x="310" y="240" width="100" height="40" as="geometry" />
        </mxCell>
        <mxCell id="PbuRHkahf-0StaOSiOaG-133" value="" style="endArrow=none;html=1;rounded=0;entryX=0;entryY=0;entryDx=0;entryDy=0;exitX=1;exitY=1;exitDx=0;exitDy=0;" parent="1" source="PbuRHkahf-0StaOSiOaG-132" edge="1">
          <mxGeometry relative="1" as="geometry">
            <mxPoint x="400" y="270" as="sourcePoint" />
            <mxPoint x="435" y="300" as="targetPoint" />
          </mxGeometry>
        </mxCell>
        <mxCell id="PbuRHkahf-0StaOSiOaG-134" value="First_name" style="ellipse;whiteSpace=wrap;html=1;align=center;" parent="1" vertex="1">
          <mxGeometry x="520" y="200" width="100" height="40" as="geometry" />
        </mxCell>
        <mxCell id="PbuRHkahf-0StaOSiOaG-135" value="Email" style="ellipse;whiteSpace=wrap;html=1;align=center;" parent="1" vertex="1">
          <mxGeometry x="690" y="270" width="100" height="40" as="geometry" />
        </mxCell>
        <mxCell id="PbuRHkahf-0StaOSiOaG-136" value="" style="endArrow=none;html=1;rounded=0;entryX=0.5;entryY=1;entryDx=0;entryDy=0;exitX=0.75;exitY=0;exitDx=0;exitDy=0;" parent="1" target="PbuRHkahf-0StaOSiOaG-134" edge="1">
          <mxGeometry relative="1" as="geometry">
            <mxPoint x="510" y="300" as="sourcePoint" />
            <mxPoint x="740" y="330" as="targetPoint" />
          </mxGeometry>
        </mxCell>
        <mxCell id="PbuRHkahf-0StaOSiOaG-137" value="" style="endArrow=none;html=1;rounded=0;exitX=1;exitY=0.25;exitDx=0;exitDy=0;entryX=0;entryY=0.5;entryDx=0;entryDy=0;" parent="1" target="PbuRHkahf-0StaOSiOaG-135" edge="1">
          <mxGeometry relative="1" as="geometry">
            <mxPoint x="535" y="310" as="sourcePoint" />
            <mxPoint x="740" y="330" as="targetPoint" />
          </mxGeometry>
        </mxCell>
        <mxCell id="PbuRHkahf-0StaOSiOaG-138" value="Phone" style="ellipse;whiteSpace=wrap;html=1;align=center;" parent="1" vertex="1">
          <mxGeometry x="680" y="320" width="100" height="40" as="geometry" />
        </mxCell>
        <mxCell id="PbuRHkahf-0StaOSiOaG-139" value="" style="endArrow=none;html=1;rounded=0;entryX=0;entryY=0.5;entryDx=0;entryDy=0;exitX=1;exitY=0.75;exitDx=0;exitDy=0;" parent="1" target="PbuRHkahf-0StaOSiOaG-138" edge="1">
          <mxGeometry relative="1" as="geometry">
            <mxPoint x="535" y="330" as="sourcePoint" />
            <mxPoint x="614.8544793961721" y="294.2255678634542" as="targetPoint" />
          </mxGeometry>
        </mxCell>
        <mxCell id="PbuRHkahf-0StaOSiOaG-142" style="edgeStyle=orthogonalEdgeStyle;rounded=0;orthogonalLoop=1;jettySize=auto;html=1;exitX=0.5;exitY=1;exitDx=0;exitDy=0;endArrow=classic;endFill=1;" parent="1" source="PbuRHkahf-0StaOSiOaG-87" target="PbuRHkahf-0StaOSiOaG-87" edge="1">
          <mxGeometry relative="1" as="geometry" />
        </mxCell>
        <mxCell id="PbuRHkahf-0StaOSiOaG-143" value="Last_name" style="ellipse;whiteSpace=wrap;html=1;align=center;" parent="1" vertex="1">
          <mxGeometry x="620" y="220" width="100" height="40" as="geometry" />
        </mxCell>
        <mxCell id="PbuRHkahf-0StaOSiOaG-144" value="" style="endArrow=none;html=1;rounded=0;entryX=0;entryY=1;entryDx=0;entryDy=0;exitX=1;exitY=0;exitDx=0;exitDy=0;" parent="1" source="PbuRHkahf-0StaOSiOaG-10" target="PbuRHkahf-0StaOSiOaG-143" edge="1">
          <mxGeometry relative="1" as="geometry">
            <mxPoint x="620" y="300" as="sourcePoint" />
            <mxPoint x="850" y="330" as="targetPoint" />
          </mxGeometry>
        </mxCell>
        <mxCell id="PbuRHkahf-0StaOSiOaG-145" value="Position" style="ellipse;whiteSpace=wrap;html=1;align=center;" parent="1" vertex="1">
          <mxGeometry x="570" y="360" width="100" height="40" as="geometry" />
        </mxCell>
        <mxCell id="PbuRHkahf-0StaOSiOaG-146" value="" style="endArrow=none;html=1;rounded=0;entryX=0;entryY=0;entryDx=0;entryDy=0;exitX=1;exitY=1;exitDx=0;exitDy=0;" parent="1" source="PbuRHkahf-0StaOSiOaG-10" target="PbuRHkahf-0StaOSiOaG-145" edge="1">
          <mxGeometry relative="1" as="geometry">
            <mxPoint x="545" y="340" as="sourcePoint" />
            <mxPoint x="709.9999999999998" y="340" as="targetPoint" />
          </mxGeometry>
        </mxCell>
        <mxCell id="kaoQ8aSlirqTVfBg7aQL-1" value="ID" style="ellipse;whiteSpace=wrap;html=1;align=center;fontStyle=4;" parent="1" vertex="1">
          <mxGeometry x="-570" y="-320" width="100" height="40" as="geometry" />
        </mxCell>
        <mxCell id="kaoQ8aSlirqTVfBg7aQL-2" value="Joined_since" style="ellipse;whiteSpace=wrap;html=1;align=center;" parent="1" vertex="1">
          <mxGeometry x="-800" y="-170" width="100" height="40" as="geometry" />
        </mxCell>
        <mxCell id="kaoQ8aSlirqTVfBg7aQL-3" value="" style="endArrow=none;html=1;rounded=0;entryX=0;entryY=0.75;entryDx=0;entryDy=0;exitX=1;exitY=0.5;exitDx=0;exitDy=0;" parent="1" source="kaoQ8aSlirqTVfBg7aQL-2" target="PbuRHkahf-0StaOSiOaG-25" edge="1">
          <mxGeometry relative="1" as="geometry">
            <mxPoint x="-700" y="-120" as="sourcePoint" />
            <mxPoint x="-590" y="-90" as="targetPoint" />
            <Array as="points" />
          </mxGeometry>
        </mxCell>
        <mxCell id="kaoQ8aSlirqTVfBg7aQL-5" value="" style="endArrow=none;html=1;rounded=0;exitX=0.5;exitY=1;exitDx=0;exitDy=0;entryX=0.5;entryY=0;entryDx=0;entryDy=0;" parent="1" source="kaoQ8aSlirqTVfBg7aQL-1" target="PbuRHkahf-0StaOSiOaG-25" edge="1">
          <mxGeometry relative="1" as="geometry">
            <mxPoint x="-624.6446609406726" y="-255.85786437626894" as="sourcePoint" />
            <mxPoint x="-545" y="-170" as="targetPoint" />
          </mxGeometry>
        </mxCell>
        <mxCell id="kaoQ8aSlirqTVfBg7aQL-6" value="Book" style="shape=rhombus;perimeter=rhombusPerimeter;whiteSpace=wrap;html=1;align=center;" parent="1" vertex="1">
          <mxGeometry x="-360" y="-190" width="120" height="60" as="geometry" />
        </mxCell>
        <mxCell id="kaoQ8aSlirqTVfBg7aQL-7" value="" style="edgeStyle=orthogonalEdgeStyle;rounded=0;orthogonalLoop=1;jettySize=auto;html=1;exitX=0.25;exitY=0;exitDx=0;exitDy=0;entryX=1;entryY=0.5;entryDx=0;entryDy=0;endArrow=none;endFill=1;" parent="1" source="PbuRHkahf-0StaOSiOaG-1" target="kaoQ8aSlirqTVfBg7aQL-6" edge="1">
          <mxGeometry relative="1" as="geometry">
            <mxPoint x="-115" y="10" as="sourcePoint" />
            <mxPoint x="-480" y="-160" as="targetPoint" />
          </mxGeometry>
        </mxCell>
        <mxCell id="kaoQ8aSlirqTVfBg7aQL-8" value="About" style="shape=rhombus;perimeter=rhombusPerimeter;whiteSpace=wrap;html=1;align=center;" parent="1" vertex="1">
          <mxGeometry x="-300" y="230" width="120" height="60" as="geometry" />
        </mxCell>
        <mxCell id="kaoQ8aSlirqTVfBg7aQL-9" value="Location" style="shape=rhombus;perimeter=rhombusPerimeter;whiteSpace=wrap;html=1;align=center;" parent="1" vertex="1">
          <mxGeometry x="-150" y="270" width="120" height="60" as="geometry" />
        </mxCell>
        <mxCell id="kaoQ8aSlirqTVfBg7aQL-10" value="" style="edgeStyle=orthogonalEdgeStyle;rounded=0;orthogonalLoop=1;jettySize=auto;html=1;exitX=0.5;exitY=1;exitDx=0;exitDy=0;startArrow=none;startFill=0;endArrow=none;endFill=1;entryX=0.5;entryY=0;entryDx=0;entryDy=0;" parent="1" source="PbuRHkahf-0StaOSiOaG-1" target="kaoQ8aSlirqTVfBg7aQL-9" edge="1">
          <mxGeometry relative="1" as="geometry">
            <mxPoint x="-90" y="50" as="sourcePoint" />
            <mxPoint x="-90" y="430" as="targetPoint" />
            <Array as="points" />
          </mxGeometry>
        </mxCell>
        <mxCell id="kaoQ8aSlirqTVfBg7aQL-11" value="Belongs to" style="shape=rhombus;perimeter=rhombusPerimeter;whiteSpace=wrap;html=1;align=center;" parent="1" vertex="1">
          <mxGeometry x="140" y="480" width="120" height="60" as="geometry" />
        </mxCell>
        <mxCell id="kaoQ8aSlirqTVfBg7aQL-12" value="" style="edgeStyle=orthogonalEdgeStyle;rounded=0;orthogonalLoop=1;jettySize=auto;html=1;entryX=0;entryY=0.5;entryDx=0;entryDy=0;startArrow=none;startFill=0;endArrow=none;endFill=1;exitX=1;exitY=0.5;exitDx=0;exitDy=0;" parent="1" source="PbuRHkahf-0StaOSiOaG-14" target="kaoQ8aSlirqTVfBg7aQL-11" edge="1">
          <mxGeometry relative="1" as="geometry">
            <mxPoint x="-40" y="450" as="sourcePoint" />
            <mxPoint x="435" y="560" as="targetPoint" />
            <Array as="points">
              <mxPoint x="100" y="450" />
              <mxPoint x="100" y="510" />
            </Array>
          </mxGeometry>
        </mxCell>
        <mxCell id="kaoQ8aSlirqTVfBg7aQL-13" value="Company field" style="shape=rhombus;perimeter=rhombusPerimeter;whiteSpace=wrap;html=1;align=center;" parent="1" vertex="1">
          <mxGeometry x="660" y="530" width="120" height="60" as="geometry" />
        </mxCell>
        <mxCell id="kaoQ8aSlirqTVfBg7aQL-14" value="" style="edgeStyle=orthogonalEdgeStyle;rounded=0;orthogonalLoop=1;jettySize=auto;html=1;startArrow=none;startFill=0;endArrow=none;endFill=1;exitX=1;exitY=0.5;exitDx=0;exitDy=0;entryX=0;entryY=0.5;entryDx=0;entryDy=0;" parent="1" source="PbuRHkahf-0StaOSiOaG-11" target="kaoQ8aSlirqTVfBg7aQL-13" edge="1">
          <mxGeometry relative="1" as="geometry">
            <mxPoint x="810" y="510" as="targetPoint" />
            <mxPoint x="535" y="560" as="sourcePoint" />
            <Array as="points" />
          </mxGeometry>
        </mxCell>
        <mxCell id="kaoQ8aSlirqTVfBg7aQL-18" value="&lt;div&gt;Works&lt;/div&gt;" style="shape=rhombus;perimeter=rhombusPerimeter;whiteSpace=wrap;html=1;align=center;" parent="1" vertex="1">
          <mxGeometry x="170" y="340" width="120" height="60" as="geometry" />
        </mxCell>
        <mxCell id="7SDLh1TChbF1hIY82TgF-1" value="Interval" style="rounded=0;whiteSpace=wrap;html=1;" vertex="1" parent="1">
          <mxGeometry x="-150" y="670" width="120" height="60" as="geometry" />
        </mxCell>
        <mxCell id="7SDLh1TChbF1hIY82TgF-4" value="&lt;div&gt;ID&lt;/div&gt;" style="ellipse;whiteSpace=wrap;html=1;" vertex="1" parent="1">
          <mxGeometry x="-270" y="760" width="80" height="40" as="geometry" />
        </mxCell>
        <mxCell id="7SDLh1TChbF1hIY82TgF-6" value="" style="endArrow=none;html=1;rounded=0;exitX=0.367;exitY=1.033;exitDx=0;exitDy=0;exitPerimeter=0;" edge="1" parent="1" source="7SDLh1TChbF1hIY82TgF-1" target="7SDLh1TChbF1hIY82TgF-10">
          <mxGeometry width="50" height="50" relative="1" as="geometry">
            <mxPoint x="40" y="620" as="sourcePoint" />
            <mxPoint x="-90" y="790" as="targetPoint" />
          </mxGeometry>
        </mxCell>
        <mxCell id="7SDLh1TChbF1hIY82TgF-8" value="" style="endArrow=none;html=1;rounded=0;exitX=1;exitY=0;exitDx=0;exitDy=0;entryX=0;entryY=1;entryDx=0;entryDy=0;" edge="1" parent="1" source="7SDLh1TChbF1hIY82TgF-4" target="7SDLh1TChbF1hIY82TgF-1">
          <mxGeometry width="50" height="50" relative="1" as="geometry">
            <mxPoint x="40" y="620" as="sourcePoint" />
            <mxPoint x="90" y="570" as="targetPoint" />
          </mxGeometry>
        </mxCell>
        <mxCell id="7SDLh1TChbF1hIY82TgF-10" value="weekday" style="ellipse;whiteSpace=wrap;html=1;" vertex="1" parent="1">
          <mxGeometry x="-180" y="770" width="75" height="50" as="geometry" />
        </mxCell>
        <mxCell id="7SDLh1TChbF1hIY82TgF-11" value="start_hour" style="ellipse;whiteSpace=wrap;html=1;" vertex="1" parent="1">
          <mxGeometry x="-90" y="770" width="75" height="50" as="geometry" />
        </mxCell>
        <mxCell id="7SDLh1TChbF1hIY82TgF-12" value="end_hour" style="ellipse;whiteSpace=wrap;html=1;" vertex="1" parent="1">
          <mxGeometry y="755" width="75" height="50" as="geometry" />
        </mxCell>
        <mxCell id="7SDLh1TChbF1hIY82TgF-13" value="" style="endArrow=none;html=1;rounded=0;exitX=0.5;exitY=0;exitDx=0;exitDy=0;" edge="1" parent="1" source="7SDLh1TChbF1hIY82TgF-11" target="7SDLh1TChbF1hIY82TgF-1">
          <mxGeometry width="50" height="50" relative="1" as="geometry">
            <mxPoint x="40" y="620" as="sourcePoint" />
            <mxPoint x="90" y="570" as="targetPoint" />
          </mxGeometry>
        </mxCell>
        <mxCell id="7SDLh1TChbF1hIY82TgF-14" value="" style="endArrow=none;html=1;rounded=0;exitX=0.333;exitY=0.04;exitDx=0;exitDy=0;exitPerimeter=0;entryX=1;entryY=1;entryDx=0;entryDy=0;" edge="1" parent="1" source="7SDLh1TChbF1hIY82TgF-12" target="7SDLh1TChbF1hIY82TgF-1">
          <mxGeometry width="50" height="50" relative="1" as="geometry">
            <mxPoint x="40" y="620" as="sourcePoint" />
            <mxPoint x="90" y="570" as="targetPoint" />
          </mxGeometry>
        </mxCell>
        <mxCell id="7SDLh1TChbF1hIY82TgF-17" style="edgeStyle=orthogonalEdgeStyle;rounded=0;orthogonalLoop=1;jettySize=auto;html=1;exitX=0.5;exitY=1;exitDx=0;exitDy=0;entryX=0.5;entryY=0;entryDx=0;entryDy=0;fillColor=#a20025;strokeColor=#6F0000;" edge="1" parent="1" source="7SDLh1TChbF1hIY82TgF-15" target="7SDLh1TChbF1hIY82TgF-1">
          <mxGeometry relative="1" as="geometry" />
        </mxCell>
        <mxCell id="7SDLh1TChbF1hIY82TgF-15" value="&lt;div&gt;Open&lt;/div&gt;" style="rhombus;whiteSpace=wrap;html=1;" vertex="1" parent="1">
          <mxGeometry x="-70" y="535" width="120" height="50" as="geometry" />
        </mxCell>
        <mxCell id="7SDLh1TChbF1hIY82TgF-21" style="edgeStyle=orthogonalEdgeStyle;rounded=0;orthogonalLoop=1;jettySize=auto;html=1;exitX=0;exitY=0.5;exitDx=0;exitDy=0;entryX=1;entryY=0.25;entryDx=0;entryDy=0;startArrow=none;startFill=0;endArrow=classic;endFill=1;strokeColor=default;" edge="1" parent="1" source="7SDLh1TChbF1hIY82TgF-19" target="PbuRHkahf-0StaOSiOaG-14">
          <mxGeometry relative="1" as="geometry" />
        </mxCell>
        <mxCell id="7SDLh1TChbF1hIY82TgF-19" value="&lt;div&gt;Is in&lt;/div&gt;" style="rhombus;whiteSpace=wrap;html=1;" vertex="1" parent="1">
          <mxGeometry x="290" y="400" width="110" height="50" as="geometry" />
        </mxCell>
      </root>
    </mxGraphModel>
  </diagram>
</mxfile>
